<svg xmlns="http://www.w3.org/2000/svg" viewBox="0 0 640 870" width="640" height="870" font-family="'Noto Sans TC','PingFang TC','Microsoft JhengHei',sans-serif"><style>text{fill:#e9f0ec;font-size:16px}.m{fill:#93a69c}.f{fill:#7d9087}.a{fill:#ff7a1a}.a2{fill:#ffb070}.e{fill:#7fd6a4}.b{fill:#7fb8ff}.d{fill:#ff5a4e}.k{fill:#111}.mono{font-family:'JetBrains Mono',Consolas,monospace}.c{text-anchor:middle}.r{text-anchor:end}.bold{font-weight:700}</style><defs><pattern id="hA" width="9" height="9" patternUnits="userSpaceOnUse" patternTransform="rotate(45)"><rect width="9" height="9" fill="#ff7a1a" fill-opacity="0.1"/><line x1="0" y1="0" x2="0" y2="9" stroke="#ff7a1a" stroke-width="1.6" stroke-opacity="0.55"/></pattern><pattern id="hG" width="9" height="9" patternUnits="userSpaceOnUse" patternTransform="rotate(45)"><rect width="9" height="9" fill="#93a69c" fill-opacity="0.06"/><line x1="0" y1="0" x2="0" y2="9" stroke="#93a69c" stroke-width="1.6" stroke-opacity="0.45"/></pattern><pattern id="hE" width="9" height="9" patternUnits="userSpaceOnUse" patternTransform="rotate(45)"><rect width="9" height="9" fill="#7fd6a4" fill-opacity="0.08"/><line x1="0" y1="0" x2="0" y2="9" stroke="#7fd6a4" stroke-width="1.6" stroke-opacity="0.5"/></pattern><marker id="mA" viewBox="0 0 10 10" refX="9" refY="5" markerWidth="7" markerHeight="7" orient="auto-start-reverse"><path d="M0,0L10,5L0,10z" fill="#ff7a1a"/></marker><marker id="mM" viewBox="0 0 10 10" refX="9" refY="5" markerWidth="7" markerHeight="7" orient="auto-start-reverse"><path d="M0,0L10,5L0,10z" fill="#93a69c"/></marker><marker id="mE" viewBox="0 0 10 10" refX="9" refY="5" markerWidth="7" markerHeight="7" orient="auto-start-reverse"><path d="M0,0L10,5L0,10z" fill="#7fd6a4"/></marker><marker id="mF" viewBox="0 0 10 10" refX="9" refY="5" markerWidth="7" markerHeight="7" orient="auto-start-reverse"><path d="M0,0L10,5L0,10z" fill="#7d9087"/></marker><marker id="mB" viewBox="0 0 10 10" refX="9" refY="5" markerWidth="7" markerHeight="7" orient="auto-start-reverse"><path d="M0,0L10,5L0,10z" fill="#7fb8ff"/></marker><marker id="mT" viewBox="0 0 10 10" refX="9" refY="5" markerWidth="7" markerHeight="7" orient="auto-start-reverse"><path d="M0,0L10,5L0,10z" fill="#e9f0ec"/></marker></defs><rect width="640" height="870" fill="#14221c"/><rect x="170" y="30" width="300" height="52" rx="10" fill="#1b2c25" stroke="#93a69c" stroke-width="2" /><text x="320" y="62" class="c" font-size="15" >開機：繼電器預設斷電</text><rect x="170" y="120" width="300" height="52" rx="10" fill="#1b2c25" stroke="#93a69c" stroke-width="2" /><text x="320" y="152" class="c" font-size="15" >讀取雨滴感測器 D0</text><polygon points="320,206 480,262 320,318 160,262" fill="rgba(255,176,112,.08)" stroke="#ffb070" stroke-width="2"/><text x="320" y="258" class="c" font-size="15" >D0 為低電位？</text><text x="320" y="280" class="c m" font-size="14" >（偵測到水）</text><rect x="500" y="222" width="128" height="82" rx="10" fill="rgba(255,90,78,.08)" stroke="#ff5a4e" stroke-width="2" /><text x="564" y="247" class="c" font-size="15" >記錄時間</text><text x="564" y="269" class="c" font-size="15" >繼電器斷電</text><text x="564" y="291" class="c" font-size="15" >（高壓關閉）</text><polygon points="320,380 498,440 320,500 142,440" fill="rgba(255,176,112,.08)" stroke="#ffb070" stroke-width="2"/><text x="320" y="436" class="c" font-size="15" >未曾降雨，或停雨</text><text x="320" y="458" class="c m" font-size="14" >已超過 DRY_DELAY？</text><rect x="90" y="560" width="180" height="64" rx="10" fill="rgba(127,214,164,.08)" stroke="#7fd6a4" stroke-width="2" /><text x="180" y="587" class="c" font-size="15" >繼電器通電</text><text x="180" y="609" class="c" font-size="15" >（高壓運作）</text><rect x="370" y="560" width="180" height="64" rx="10" fill="#1b2c25" stroke="#93a69c" stroke-width="2" /><text x="460" y="587" class="c" font-size="15" >維持斷電</text><text x="460" y="609" class="c" font-size="15" >（延遲等待中）</text><rect x="170" y="690" width="300" height="52" rx="10" fill="#1b2c25" stroke="#93a69c" stroke-width="2" /><text x="320" y="722" class="c" font-size="15" >序列埠輸出狀態</text><rect x="170" y="790" width="300" height="52" rx="10" fill="#1b2c25" stroke="#93a69c" stroke-width="2" /><text x="320" y="822" class="c" font-size="15" >延遲 300 ms</text><path d="M320,82 V118" fill="none" stroke="#93a69c" stroke-width="2" marker-end="url(#mM)"/><path d="M320,172 V204" fill="none" stroke="#93a69c" stroke-width="2" marker-end="url(#mM)"/><path d="M480,262 H498" fill="none" stroke="#93a69c" stroke-width="2" marker-end="url(#mM)"/><text x="488" y="252" class="m c" font-size="14" >是</text><path d="M320,318 V378" fill="none" stroke="#93a69c" stroke-width="2" marker-end="url(#mM)"/><text x="334" y="352" class="m" font-size="14" >否</text><path d="M142,440 H180 V558" fill="none" stroke="#93a69c" stroke-width="2" marker-end="url(#mM)"/><text x="118" y="436" class="m" font-size="14" >是</text><path d="M320,500 V528 H460 V558" fill="none" stroke="#93a69c" stroke-width="2" marker-end="url(#mM)"/><text x="334" y="520" class="m" font-size="14" >否</text><path d="M180,624 V688" fill="none" stroke="#93a69c" stroke-width="2" marker-end="url(#mM)"/><path d="M460,624 V688" fill="none" stroke="#93a69c" stroke-width="2" marker-end="url(#mM)"/><path d="M564,304 V716 H472" fill="none" stroke="#93a69c" stroke-width="2" marker-end="url(#mM)"/><path d="M320,742 V788" fill="none" stroke="#93a69c" stroke-width="2" marker-end="url(#mM)"/><path d="M170,816 H44 V146 H168" fill="none" stroke="#93a69c" stroke-width="2" marker-end="url(#mM)"/><text x="30" y="480" class="f" font-size="14" transform="rotate(-90 30 480)" text-anchor="middle">重複執行</text></svg>