<svg xmlns="http://www.w3.org/2000/svg" viewBox="0 0 900 500" width="900" height="500" font-family="'Noto Sans TC','PingFang TC','Microsoft JhengHei',sans-serif"><style>text{fill:#e9f0ec;font-size:16px}.m{fill:#93a69c}.f{fill:#7d9087}.a{fill:#ff7a1a}.a2{fill:#ffb070}.e{fill:#7fd6a4}.b{fill:#7fb8ff}.d{fill:#ff5a4e}.k{fill:#111}.mono{font-family:'JetBrains Mono',Consolas,monospace}.c{text-anchor:middle}.r{text-anchor:end}.bold{font-weight:700}</style><defs><pattern id="hA" width="9" height="9" patternUnits="userSpaceOnUse" patternTransform="rotate(45)"><rect width="9" height="9" fill="#ff7a1a" fill-opacity="0.1"/><line x1="0" y1="0" x2="0" y2="9" stroke="#ff7a1a" stroke-width="1.6" stroke-opacity="0.55"/></pattern><pattern id="hG" width="9" height="9" patternUnits="userSpaceOnUse" patternTransform="rotate(45)"><rect width="9" height="9" fill="#93a69c" fill-opacity="0.06"/><line x1="0" y1="0" x2="0" y2="9" stroke="#93a69c" stroke-width="1.6" stroke-opacity="0.45"/></pattern><pattern id="hE" width="9" height="9" patternUnits="userSpaceOnUse" patternTransform="rotate(45)"><rect width="9" height="9" fill="#7fd6a4" fill-opacity="0.08"/><line x1="0" y1="0" x2="0" y2="9" stroke="#7fd6a4" stroke-width="1.6" stroke-opacity="0.5"/></pattern><marker id="mA" viewBox="0 0 10 10" refX="9" refY="5" markerWidth="7" markerHeight="7" orient="auto-start-reverse"><path d="M0,0L10,5L0,10z" fill="#ff7a1a"/></marker><marker id="mM" viewBox="0 0 10 10" refX="9" refY="5" markerWidth="7" markerHeight="7" orient="auto-start-reverse"><path d="M0,0L10,5L0,10z" fill="#93a69c"/></marker><marker id="mE" viewBox="0 0 10 10" refX="9" refY="5" markerWidth="7" markerHeight="7" orient="auto-start-reverse"><path d="M0,0L10,5L0,10z" fill="#7fd6a4"/></marker><marker id="mF" viewBox="0 0 10 10" refX="9" refY="5" markerWidth="7" markerHeight="7" orient="auto-start-reverse"><path d="M0,0L10,5L0,10z" fill="#7d9087"/></marker><marker id="mB" viewBox="0 0 10 10" refX="9" refY="5" markerWidth="7" markerHeight="7" orient="auto-start-reverse"><path d="M0,0L10,5L0,10z" fill="#7fb8ff"/></marker><marker id="mT" viewBox="0 0 10 10" refX="9" refY="5" markerWidth="7" markerHeight="7" orient="auto-start-reverse"><path d="M0,0L10,5L0,10z" fill="#e9f0ec"/></marker></defs><rect width="900" height="500" fill="#14221c"/><circle cx="300" cy="265" r="215" fill="none" stroke="#93a69c" stroke-width="2" /><circle cx="300" cy="265" r="185" fill="none" stroke="#93a69c" stroke-width="1.5" /><line x1="490" y1="265" x2="510" y2="265" stroke="#7d9087" stroke-width="1.4" /><line x1="489.7" y1="274.9" x2="509.7" y2="276" stroke="#7d9087" stroke-width="1.4" /><line x1="489" y1="284.9" x2="508.8" y2="287" stroke="#7d9087" stroke-width="1.4" /><line x1="487.7" y1="294.7" x2="507.4" y2="297.9" stroke="#7d9087" stroke-width="1.4" /><line x1="485.8" y1="304.5" x2="505.4" y2="308.7" stroke="#7d9087" stroke-width="1.4" /><line x1="483.5" y1="314.2" x2="502.8" y2="319.4" stroke="#7d9087" stroke-width="1.4" /><line x1="480.7" y1="323.7" x2="499.7" y2="329.9" stroke="#7d9087" stroke-width="1.4" /><line x1="477.4" y1="333.1" x2="496.1" y2="340.3" stroke="#7d9087" stroke-width="1.4" /><line x1="473.6" y1="342.3" x2="491.8" y2="350.4" stroke="#7d9087" stroke-width="1.4" /><line x1="469.3" y1="351.3" x2="487.1" y2="360.3" stroke="#7d9087" stroke-width="1.4" /><line x1="464.5" y1="360" x2="481.9" y2="370" stroke="#7d9087" stroke-width="1.4" /><line x1="459.3" y1="368.5" x2="476.1" y2="379.4" stroke="#7d9087" stroke-width="1.4" /><line x1="453.7" y1="376.7" x2="469.9" y2="388.4" stroke="#7d9087" stroke-width="1.4" /><line x1="447.7" y1="384.6" x2="463.2" y2="397.2" stroke="#7d9087" stroke-width="1.4" /><line x1="441.2" y1="392.1" x2="456.1" y2="405.5" stroke="#7d9087" stroke-width="1.4" /><line x1="434.4" y1="399.4" x2="448.5" y2="413.5" stroke="#7d9087" stroke-width="1.4" /><line x1="427.1" y1="406.2" x2="440.5" y2="421.1" stroke="#7d9087" stroke-width="1.4" /><line x1="419.6" y1="412.7" x2="432.2" y2="428.2" stroke="#7d9087" stroke-width="1.4" /><line x1="411.7" y1="418.7" x2="423.4" y2="434.9" stroke="#7d9087" stroke-width="1.4" /><line x1="403.5" y1="424.3" x2="414.4" y2="441.1" stroke="#7d9087" stroke-width="1.4" /><line x1="395" y1="429.5" x2="405" y2="446.9" stroke="#7d9087" stroke-width="1.4" /><line x1="386.3" y1="434.3" x2="395.3" y2="452.1" stroke="#7d9087" stroke-width="1.4" /><line x1="377.3" y1="438.6" x2="385.4" y2="456.8" stroke="#7d9087" stroke-width="1.4" /><line x1="368.1" y1="442.4" x2="375.3" y2="461.1" stroke="#7d9087" stroke-width="1.4" /><line x1="358.7" y1="445.7" x2="364.9" y2="464.7" stroke="#7d9087" stroke-width="1.4" /><line x1="349.2" y1="448.5" x2="354.4" y2="467.8" stroke="#7d9087" stroke-width="1.4" /><line x1="339.5" y1="450.8" x2="343.7" y2="470.4" stroke="#7d9087" stroke-width="1.4" /><line x1="329.7" y1="452.7" x2="332.9" y2="472.4" stroke="#7d9087" stroke-width="1.4" /><line x1="319.9" y1="454" x2="322" y2="473.8" stroke="#7d9087" stroke-width="1.4" /><line x1="309.9" y1="454.7" x2="311" y2="474.7" stroke="#7d9087" stroke-width="1.4" /><line x1="300" y1="455" x2="300" y2="475" stroke="#7d9087" stroke-width="1.4" /><line x1="290.1" y1="454.7" x2="289" y2="474.7" stroke="#7d9087" stroke-width="1.4" /><line x1="280.1" y1="454" x2="278" y2="473.8" stroke="#7d9087" stroke-width="1.4" /><line x1="270.3" y1="452.7" x2="267.1" y2="472.4" stroke="#7d9087" stroke-width="1.4" /><line x1="260.5" y1="450.8" x2="256.3" y2="470.4" stroke="#7d9087" stroke-width="1.4" /><line x1="250.8" y1="448.5" x2="245.6" y2="467.8" stroke="#7d9087" stroke-width="1.4" /><line x1="241.3" y1="445.7" x2="235.1" y2="464.7" stroke="#7d9087" stroke-width="1.4" /><line x1="231.9" y1="442.4" x2="224.7" y2="461.1" stroke="#7d9087" stroke-width="1.4" /><line x1="222.7" y1="438.6" x2="214.6" y2="456.8" stroke="#7d9087" stroke-width="1.4" /><line x1="213.7" y1="434.3" x2="204.7" y2="452.1" stroke="#7d9087" stroke-width="1.4" /><line x1="205" y1="429.5" x2="195" y2="446.9" stroke="#7d9087" stroke-width="1.4" /><line x1="196.5" y1="424.3" x2="185.6" y2="441.1" stroke="#7d9087" stroke-width="1.4" /><line x1="188.3" y1="418.7" x2="176.6" y2="434.9" stroke="#7d9087" stroke-width="1.4" /><line x1="180.4" y1="412.7" x2="167.8" y2="428.2" stroke="#7d9087" stroke-width="1.4" /><line x1="172.9" y1="406.2" x2="159.5" y2="421.1" stroke="#7d9087" stroke-width="1.4" /><line x1="165.6" y1="399.4" x2="151.5" y2="413.5" stroke="#7d9087" stroke-width="1.4" /><line x1="158.8" y1="392.1" x2="143.9" y2="405.5" stroke="#7d9087" stroke-width="1.4" /><line x1="152.3" y1="384.6" x2="136.8" y2="397.2" stroke="#7d9087" stroke-width="1.4" /><line x1="146.3" y1="376.7" x2="130.1" y2="388.4" stroke="#7d9087" stroke-width="1.4" /><line x1="140.7" y1="368.5" x2="123.9" y2="379.4" stroke="#7d9087" stroke-width="1.4" /><line x1="135.5" y1="360" x2="118.1" y2="370" stroke="#7d9087" stroke-width="1.4" /><line x1="130.7" y1="351.3" x2="112.9" y2="360.3" stroke="#7d9087" stroke-width="1.4" /><line x1="126.4" y1="342.3" x2="108.2" y2="350.4" stroke="#7d9087" stroke-width="1.4" /><line x1="122.6" y1="333.1" x2="103.9" y2="340.3" stroke="#7d9087" stroke-width="1.4" /><line x1="119.3" y1="323.7" x2="100.3" y2="329.9" stroke="#7d9087" stroke-width="1.4" /><line x1="116.5" y1="314.2" x2="97.2" y2="319.4" stroke="#7d9087" stroke-width="1.4" /><line x1="114.2" y1="304.5" x2="94.6" y2="308.7" stroke="#7d9087" stroke-width="1.4" /><line x1="112.3" y1="294.7" x2="92.6" y2="297.9" stroke="#7d9087" stroke-width="1.4" /><line x1="111" y1="284.9" x2="91.2" y2="287" stroke="#7d9087" stroke-width="1.4" /><line x1="110.3" y1="274.9" x2="90.3" y2="276" stroke="#7d9087" stroke-width="1.4" /><line x1="110" y1="265" x2="90" y2="265" stroke="#7d9087" stroke-width="1.4" /><line x1="110.3" y1="255.1" x2="90.3" y2="254" stroke="#7d9087" stroke-width="1.4" /><line x1="111" y1="245.1" x2="91.2" y2="243" stroke="#7d9087" stroke-width="1.4" /><line x1="112.3" y1="235.3" x2="92.6" y2="232.1" stroke="#7d9087" stroke-width="1.4" /><line x1="114.2" y1="225.5" x2="94.6" y2="221.3" stroke="#7d9087" stroke-width="1.4" /><line x1="116.5" y1="215.8" x2="97.2" y2="210.6" stroke="#7d9087" stroke-width="1.4" /><line x1="119.3" y1="206.3" x2="100.3" y2="200.1" stroke="#7d9087" stroke-width="1.4" /><line x1="122.6" y1="196.9" x2="103.9" y2="189.7" stroke="#7d9087" stroke-width="1.4" /><line x1="126.4" y1="187.7" x2="108.2" y2="179.6" stroke="#7d9087" stroke-width="1.4" /><line x1="130.7" y1="178.7" x2="112.9" y2="169.7" stroke="#7d9087" stroke-width="1.4" /><line x1="135.5" y1="170" x2="118.1" y2="160" stroke="#7d9087" stroke-width="1.4" /><line x1="140.7" y1="161.5" x2="123.9" y2="150.6" stroke="#7d9087" stroke-width="1.4" /><line x1="146.3" y1="153.3" x2="130.1" y2="141.6" stroke="#7d9087" stroke-width="1.4" /><line x1="152.3" y1="145.4" x2="136.8" y2="132.8" stroke="#7d9087" stroke-width="1.4" /><line x1="158.8" y1="137.9" x2="143.9" y2="124.5" stroke="#7d9087" stroke-width="1.4" /><line x1="165.6" y1="130.6" x2="151.5" y2="116.5" stroke="#7d9087" stroke-width="1.4" /><line x1="172.9" y1="123.8" x2="159.5" y2="108.9" stroke="#7d9087" stroke-width="1.4" /><line x1="180.4" y1="117.3" x2="167.8" y2="101.8" stroke="#7d9087" stroke-width="1.4" /><line x1="188.3" y1="111.3" x2="176.6" y2="95.1" stroke="#7d9087" stroke-width="1.4" /><line x1="196.5" y1="105.7" x2="185.6" y2="88.9" stroke="#7d9087" stroke-width="1.4" /><line x1="205" y1="100.5" x2="195" y2="83.1" stroke="#7d9087" stroke-width="1.4" /><line x1="213.7" y1="95.7" x2="204.7" y2="77.9" stroke="#7d9087" stroke-width="1.4" /><line x1="222.7" y1="91.4" x2="214.6" y2="73.2" stroke="#7d9087" stroke-width="1.4" /><line x1="231.9" y1="87.6" x2="224.7" y2="68.9" stroke="#7d9087" stroke-width="1.4" /><line x1="241.3" y1="84.3" x2="235.1" y2="65.3" stroke="#7d9087" stroke-width="1.4" /><line x1="250.8" y1="81.5" x2="245.6" y2="62.2" stroke="#7d9087" stroke-width="1.4" /><line x1="260.5" y1="79.2" x2="256.3" y2="59.6" stroke="#7d9087" stroke-width="1.4" /><line x1="270.3" y1="77.3" x2="267.1" y2="57.6" stroke="#7d9087" stroke-width="1.4" /><line x1="280.1" y1="76" x2="278" y2="56.2" stroke="#7d9087" stroke-width="1.4" /><line x1="290.1" y1="75.3" x2="289" y2="55.3" stroke="#7d9087" stroke-width="1.4" /><line x1="300" y1="75" x2="300" y2="55" stroke="#7d9087" stroke-width="1.4" /><line x1="309.9" y1="75.3" x2="311" y2="55.3" stroke="#7d9087" stroke-width="1.4" /><line x1="319.9" y1="76" x2="322" y2="56.2" stroke="#7d9087" stroke-width="1.4" /><line x1="329.7" y1="77.3" x2="332.9" y2="57.6" stroke="#7d9087" stroke-width="1.4" /><line x1="339.5" y1="79.2" x2="343.7" y2="59.6" stroke="#7d9087" stroke-width="1.4" /><line x1="349.2" y1="81.5" x2="354.4" y2="62.2" stroke="#7d9087" stroke-width="1.4" /><line x1="358.7" y1="84.3" x2="364.9" y2="65.3" stroke="#7d9087" stroke-width="1.4" /><line x1="368.1" y1="87.6" x2="375.3" y2="68.9" stroke="#7d9087" stroke-width="1.4" /><line x1="377.3" y1="91.4" x2="385.4" y2="73.2" stroke="#7d9087" stroke-width="1.4" /><line x1="386.3" y1="95.7" x2="395.3" y2="77.9" stroke="#7d9087" stroke-width="1.4" /><line x1="395" y1="100.5" x2="405" y2="83.1" stroke="#7d9087" stroke-width="1.4" /><line x1="403.5" y1="105.7" x2="414.4" y2="88.9" stroke="#7d9087" stroke-width="1.4" /><line x1="411.7" y1="111.3" x2="423.4" y2="95.1" stroke="#7d9087" stroke-width="1.4" /><line x1="419.6" y1="117.3" x2="432.2" y2="101.8" stroke="#7d9087" stroke-width="1.4" /><line x1="427.1" y1="123.8" x2="440.5" y2="108.9" stroke="#7d9087" stroke-width="1.4" /><line x1="434.4" y1="130.6" x2="448.5" y2="116.5" stroke="#7d9087" stroke-width="1.4" /><line x1="441.2" y1="137.9" x2="456.1" y2="124.5" stroke="#7d9087" stroke-width="1.4" /><line x1="447.7" y1="145.4" x2="463.2" y2="132.8" stroke="#7d9087" stroke-width="1.4" /><line x1="453.7" y1="153.3" x2="469.9" y2="141.6" stroke="#7d9087" stroke-width="1.4" /><line x1="459.3" y1="161.5" x2="476.1" y2="150.6" stroke="#7d9087" stroke-width="1.4" /><line x1="464.5" y1="170" x2="481.9" y2="160" stroke="#7d9087" stroke-width="1.4" /><line x1="469.3" y1="178.7" x2="487.1" y2="169.7" stroke="#7d9087" stroke-width="1.4" /><line x1="473.6" y1="187.7" x2="491.8" y2="179.6" stroke="#7d9087" stroke-width="1.4" /><line x1="477.4" y1="196.9" x2="496.1" y2="189.7" stroke="#7d9087" stroke-width="1.4" /><line x1="480.7" y1="206.3" x2="499.7" y2="200.1" stroke="#7d9087" stroke-width="1.4" /><line x1="483.5" y1="215.8" x2="502.8" y2="210.6" stroke="#7d9087" stroke-width="1.4" /><line x1="485.8" y1="225.5" x2="505.4" y2="221.3" stroke="#7d9087" stroke-width="1.4" /><line x1="487.7" y1="235.3" x2="507.4" y2="232.1" stroke="#7d9087" stroke-width="1.4" /><line x1="489" y1="245.1" x2="508.8" y2="243" stroke="#7d9087" stroke-width="1.4" /><line x1="489.7" y1="255.1" x2="509.7" y2="254" stroke="#7d9087" stroke-width="1.4" /><circle cx="300" cy="265" r="160" fill="none" stroke="#25382f" stroke-width="2" /><line x1="367.5" y1="265" x2="440.4" y2="341.7" stroke="#25382f" stroke-width="1.5" /><line x1="363.4" y1="288.1" x2="405.7" y2="385.1" stroke="#25382f" stroke-width="1.5" /><line x1="351.7" y1="308.4" x2="358.3" y2="414" stroke="#25382f" stroke-width="1.5" /><line x1="333.8" y1="323.5" x2="303.8" y2="425" stroke="#25382f" stroke-width="1.5" /><line x1="311.7" y1="331.5" x2="248.8" y2="416.6" stroke="#25382f" stroke-width="1.5" /><line x1="288.3" y1="331.5" x2="200.1" y2="390" stroke="#25382f" stroke-width="1.5" /><line x1="266.3" y1="323.5" x2="163.4" y2="348.2" stroke="#25382f" stroke-width="1.5" /><line x1="248.3" y1="308.4" x2="143.1" y2="296.5" stroke="#25382f" stroke-width="1.5" /><line x1="236.6" y1="288.1" x2="141.8" y2="240.9" stroke="#25382f" stroke-width="1.5" /><line x1="232.5" y1="265" x2="159.6" y2="188.3" stroke="#25382f" stroke-width="1.5" /><line x1="236.6" y1="241.9" x2="194.3" y2="144.9" stroke="#25382f" stroke-width="1.5" /><line x1="248.3" y1="221.6" x2="241.7" y2="116" stroke="#25382f" stroke-width="1.5" /><line x1="266.2" y1="206.5" x2="296.2" y2="105" stroke="#25382f" stroke-width="1.5" /><line x1="288.3" y1="198.5" x2="351.2" y2="113.4" stroke="#25382f" stroke-width="1.5" /><line x1="311.7" y1="198.5" x2="399.9" y2="140" stroke="#25382f" stroke-width="1.5" /><line x1="333.8" y1="206.5" x2="436.6" y2="181.8" stroke="#25382f" stroke-width="1.5" /><line x1="351.7" y1="221.6" x2="456.9" y2="233.5" stroke="#25382f" stroke-width="1.5" /><line x1="363.4" y1="241.9" x2="458.2" y2="289.1" stroke="#25382f" stroke-width="1.5" /><circle cx="300" cy="265" r="75" fill="#0d1611" stroke="#ff7a1a" stroke-width="4" /><circle cx="349.5" cy="265" r="6" fill="none" stroke="#e9f0ec" stroke-width="2" /><circle cx="335" cy="300" r="6" fill="none" stroke="#e9f0ec" stroke-width="2" /><circle cx="300" cy="314.5" r="6" fill="none" stroke="#e9f0ec" stroke-width="2" /><circle cx="265" cy="300" r="6" fill="none" stroke="#e9f0ec" stroke-width="2" /><circle cx="250.5" cy="265" r="6" fill="none" stroke="#e9f0ec" stroke-width="2" /><circle cx="265" cy="230" r="6" fill="none" stroke="#e9f0ec" stroke-width="2" /><circle cx="300" cy="215.5" r="6" fill="none" stroke="#e9f0ec" stroke-width="2" /><circle cx="335" cy="230" r="6" fill="none" stroke="#e9f0ec" stroke-width="2" /><circle cx="300" cy="265" r="22.5" fill="none" stroke="#e9f0ec" stroke-width="2" /><line x1="85" y1="24" x2="515" y2="24" stroke="#93a69c" stroke-width="1.5" /><line x1="85" y1="16" x2="85" y2="32" stroke="#93a69c" stroke-width="1.5" /><line x1="515" y1="16" x2="515" y2="32" stroke="#93a69c" stroke-width="1.5" /><rect x="244" y="9" width="112" height="30" rx="4" fill="#0d1611" stroke="none" stroke-width="0" /><text x="300" y="30" class="c mono" font-size="15" >Ø 50 cm</text><line x1="40" y1="482" x2="600" y2="482" stroke="#93a69c" stroke-width="2" /><line x1="44" y1="484" x2="44" y2="492" stroke="#7d9087" stroke-width="1.2" /><line x1="54" y1="484" x2="54" y2="492" stroke="#7d9087" stroke-width="1.2" /><line x1="64" y1="484" x2="64" y2="492" stroke="#7d9087" stroke-width="1.2" /><line x1="74" y1="484" x2="74" y2="492" stroke="#7d9087" stroke-width="1.2" /><line x1="84" y1="484" x2="84" y2="492" stroke="#7d9087" stroke-width="1.2" /><line x1="94" y1="484" x2="94" y2="492" stroke="#7d9087" stroke-width="1.2" /><line x1="104" y1="484" x2="104" y2="492" stroke="#7d9087" stroke-width="1.2" /><line x1="114" y1="484" x2="114" y2="492" stroke="#7d9087" stroke-width="1.2" /><line x1="124" y1="484" x2="124" y2="492" stroke="#7d9087" stroke-width="1.2" /><line x1="134" y1="484" x2="134" y2="492" stroke="#7d9087" stroke-width="1.2" /><line x1="144" y1="484" x2="144" y2="492" stroke="#7d9087" stroke-width="1.2" /><line x1="154" y1="484" x2="154" y2="492" stroke="#7d9087" stroke-width="1.2" /><line x1="164" y1="484" x2="164" y2="492" stroke="#7d9087" stroke-width="1.2" /><line x1="174" y1="484" x2="174" y2="492" stroke="#7d9087" stroke-width="1.2" /><line x1="184" y1="484" x2="184" y2="492" stroke="#7d9087" stroke-width="1.2" /><line x1="194" y1="484" x2="194" y2="492" stroke="#7d9087" stroke-width="1.2" /><line x1="204" y1="484" x2="204" y2="492" stroke="#7d9087" stroke-width="1.2" /><line x1="214" y1="484" x2="214" y2="492" stroke="#7d9087" stroke-width="1.2" /><line x1="224" y1="484" x2="224" y2="492" stroke="#7d9087" stroke-width="1.2" /><line x1="234" y1="484" x2="234" y2="492" stroke="#7d9087" stroke-width="1.2" /><line x1="244" y1="484" x2="244" y2="492" stroke="#7d9087" stroke-width="1.2" /><line x1="254" y1="484" x2="254" y2="492" stroke="#7d9087" stroke-width="1.2" /><line x1="264" y1="484" x2="264" y2="492" stroke="#7d9087" stroke-width="1.2" /><line x1="274" y1="484" x2="274" y2="492" stroke="#7d9087" stroke-width="1.2" /><line x1="284" y1="484" x2="284" y2="492" stroke="#7d9087" stroke-width="1.2" /><line x1="294" y1="484" x2="294" y2="492" stroke="#7d9087" stroke-width="1.2" /><line x1="304" y1="484" x2="304" y2="492" stroke="#7d9087" stroke-width="1.2" /><line x1="314" y1="484" x2="314" y2="492" stroke="#7d9087" stroke-width="1.2" /><line x1="324" y1="484" x2="324" y2="492" stroke="#7d9087" stroke-width="1.2" /><line x1="334" y1="484" x2="334" y2="492" stroke="#7d9087" stroke-width="1.2" /><line x1="344" y1="484" x2="344" y2="492" stroke="#7d9087" stroke-width="1.2" /><line x1="354" y1="484" x2="354" y2="492" stroke="#7d9087" stroke-width="1.2" /><line x1="364" y1="484" x2="364" y2="492" stroke="#7d9087" stroke-width="1.2" /><line x1="374" y1="484" x2="374" y2="492" stroke="#7d9087" stroke-width="1.2" /><line x1="384" y1="484" x2="384" y2="492" stroke="#7d9087" stroke-width="1.2" /><line x1="394" y1="484" x2="394" y2="492" stroke="#7d9087" stroke-width="1.2" /><line x1="404" y1="484" x2="404" y2="492" stroke="#7d9087" stroke-width="1.2" /><line x1="414" y1="484" x2="414" y2="492" stroke="#7d9087" stroke-width="1.2" /><line x1="424" y1="484" x2="424" y2="492" stroke="#7d9087" stroke-width="1.2" /><line x1="434" y1="484" x2="434" y2="492" stroke="#7d9087" stroke-width="1.2" /><line x1="444" y1="484" x2="444" y2="492" stroke="#7d9087" stroke-width="1.2" /><line x1="454" y1="484" x2="454" y2="492" stroke="#7d9087" stroke-width="1.2" /><line x1="464" y1="484" x2="464" y2="492" stroke="#7d9087" stroke-width="1.2" /><line x1="474" y1="484" x2="474" y2="492" stroke="#7d9087" stroke-width="1.2" /><line x1="484" y1="484" x2="484" y2="492" stroke="#7d9087" stroke-width="1.2" /><line x1="494" y1="484" x2="494" y2="492" stroke="#7d9087" stroke-width="1.2" /><line x1="504" y1="484" x2="504" y2="492" stroke="#7d9087" stroke-width="1.2" /><line x1="514" y1="484" x2="514" y2="492" stroke="#7d9087" stroke-width="1.2" /><line x1="524" y1="484" x2="524" y2="492" stroke="#7d9087" stroke-width="1.2" /><line x1="534" y1="484" x2="534" y2="492" stroke="#7d9087" stroke-width="1.2" /><line x1="544" y1="484" x2="544" y2="492" stroke="#7d9087" stroke-width="1.2" /><line x1="554" y1="484" x2="554" y2="492" stroke="#7d9087" stroke-width="1.2" /><line x1="564" y1="484" x2="564" y2="492" stroke="#7d9087" stroke-width="1.2" /><line x1="574" y1="484" x2="574" y2="492" stroke="#7d9087" stroke-width="1.2" /><line x1="584" y1="484" x2="584" y2="492" stroke="#7d9087" stroke-width="1.2" /><line x1="594" y1="484" x2="594" y2="492" stroke="#7d9087" stroke-width="1.2" /><circle cx="433.1" cy="452.1" r="4.3" fill="#ff7a1a" stroke="none" stroke-width="0" opacity="0.5"/><circle cx="435.1" cy="453.8" r="2" fill="#ff7a1a" stroke="none" stroke-width="0" opacity="1"/><circle cx="486.5" cy="457.5" r="5.3" fill="#ff7a1a" stroke="none" stroke-width="0" opacity="0.6"/><circle cx="372.7" cy="453.3" r="3.6" fill="#ff7a1a" stroke="none" stroke-width="0" opacity="0.9"/><circle cx="445.8" cy="464.5" r="3.4" fill="#ff7a1a" stroke="none" stroke-width="0" opacity="0.5"/><circle cx="488.5" cy="476.6" r="2.9" fill="#ff7a1a" stroke="none" stroke-width="0" opacity="1"/><circle cx="472.4" cy="477.6" r="4.4" fill="#ff7a1a" stroke="none" stroke-width="0" opacity="1"/><circle cx="485.4" cy="476.6" r="2.8" fill="#ff7a1a" stroke="none" stroke-width="0" opacity="0.7"/><circle cx="394.6" cy="459.6" r="2.7" fill="#ff7a1a" stroke="none" stroke-width="0" opacity="0.9"/><circle cx="418.6" cy="467.1" r="4" fill="#ff7a1a" stroke="none" stroke-width="0" opacity="0.9"/><circle cx="438.6" cy="474.8" r="4.5" fill="#ff7a1a" stroke="none" stroke-width="0" opacity="0.7"/><circle cx="402.7" cy="474.2" r="4.8" fill="#ff7a1a" stroke="none" stroke-width="0" opacity="0.5"/><circle cx="420.3" cy="461.4" r="4.3" fill="#ff7a1a" stroke="none" stroke-width="0" opacity="0.4"/><circle cx="409.7" cy="459.6" r="2.9" fill="#ff7a1a" stroke="none" stroke-width="0" opacity="0.6"/><circle cx="401.6" cy="461.7" r="2.3" fill="#ff7a1a" stroke="none" stroke-width="0" opacity="0.6"/><circle cx="380" cy="476.1" r="3.8" fill="#ff7a1a" stroke="none" stroke-width="0" opacity="0.5"/><polyline points="340,225 420,140 600,140" fill="none" stroke="#ff7a1a" stroke-width="2"/><circle cx="340" cy="225" r="4" fill="#ff7a1a" stroke="none" stroke-width="2" /><text x="612" y="148" class="a bold" font-size="24" >48 V 輪轂馬達</text><text x="612" y="192" class="m" font-size="15" >電動腳踏車驅動輪</text><text x="612" y="256"><tspan class="a mono bold" font-size="30">350</tspan><tspan class="m" font-size="14" dx="10">RPM 最高轉速</tspan></text><text x="612" y="304"><tspan class="a mono bold" font-size="30">≈ 33</tspan><tspan class="m" font-size="14" dx="10">km/h 等效車速</tspan></text><text x="612" y="352"><tspan class="a mono bold" font-size="30">Ø 50</tspan><tspan class="m" font-size="14" dx="10">cm 輪胎外徑</tspan></text></svg>