<svg xmlns="http://www.w3.org/2000/svg" viewBox="0 0 880 660" width="880" height="660" font-family="'Noto Sans TC','PingFang TC','Microsoft JhengHei',sans-serif"><style>text{fill:#e9f0ec;font-size:16px}.m{fill:#93a69c}.f{fill:#7d9087}.a{fill:#ff7a1a}.a2{fill:#ffb070}.e{fill:#7fd6a4}.b{fill:#7fb8ff}.d{fill:#ff5a4e}.k{fill:#111}.mono{font-family:'JetBrains Mono',Consolas,monospace}.c{text-anchor:middle}.r{text-anchor:end}.bold{font-weight:700}</style><defs><pattern id="hA" width="9" height="9" patternUnits="userSpaceOnUse" patternTransform="rotate(45)"><rect width="9" height="9" fill="#ff7a1a" fill-opacity="0.1"/><line x1="0" y1="0" x2="0" y2="9" stroke="#ff7a1a" stroke-width="1.6" stroke-opacity="0.55"/></pattern><pattern id="hG" width="9" height="9" patternUnits="userSpaceOnUse" patternTransform="rotate(45)"><rect width="9" height="9" fill="#93a69c" fill-opacity="0.06"/><line x1="0" y1="0" x2="0" y2="9" stroke="#93a69c" stroke-width="1.6" stroke-opacity="0.45"/></pattern><pattern id="hE" width="9" height="9" patternUnits="userSpaceOnUse" patternTransform="rotate(45)"><rect width="9" height="9" fill="#7fd6a4" fill-opacity="0.08"/><line x1="0" y1="0" x2="0" y2="9" stroke="#7fd6a4" stroke-width="1.6" stroke-opacity="0.5"/></pattern><marker id="mA" viewBox="0 0 10 10" refX="9" refY="5" markerWidth="7" markerHeight="7" orient="auto-start-reverse"><path d="M0,0L10,5L0,10z" fill="#ff7a1a"/></marker><marker id="mM" viewBox="0 0 10 10" refX="9" refY="5" markerWidth="7" markerHeight="7" orient="auto-start-reverse"><path d="M0,0L10,5L0,10z" fill="#93a69c"/></marker><marker id="mE" viewBox="0 0 10 10" refX="9" refY="5" markerWidth="7" markerHeight="7" orient="auto-start-reverse"><path d="M0,0L10,5L0,10z" fill="#7fd6a4"/></marker><marker id="mF" viewBox="0 0 10 10" refX="9" refY="5" markerWidth="7" markerHeight="7" orient="auto-start-reverse"><path d="M0,0L10,5L0,10z" fill="#7d9087"/></marker><marker id="mB" viewBox="0 0 10 10" refX="9" refY="5" markerWidth="7" markerHeight="7" orient="auto-start-reverse"><path d="M0,0L10,5L0,10z" fill="#7fb8ff"/></marker><marker id="mT" viewBox="0 0 10 10" refX="9" refY="5" markerWidth="7" markerHeight="7" orient="auto-start-reverse"><path d="M0,0L10,5L0,10z" fill="#e9f0ec"/></marker></defs><rect width="880" height="660" fill="#14221c"/><rect x="20" y="580" width="640" height="36" rx="4" fill="#1b2c25" stroke="#93a69c" stroke-width="2" /><rect x="120" y="570" width="360" height="10" rx="0" fill="url(#hG)" stroke="#93a69c" stroke-width="1.5" /><circle cx="300" cy="320" r="250" fill="none" stroke="#93a69c" stroke-width="2" /><circle cx="300" cy="320" r="220" fill="none" stroke="#93a69c" stroke-width="1.5" /><line x1="525" y1="320" x2="545" y2="320" stroke="#7d9087" stroke-width="1.4" /><line x1="524.7" y1="331.8" x2="544.7" y2="332.8" stroke="#7d9087" stroke-width="1.4" /><line x1="523.8" y1="343.5" x2="543.7" y2="345.6" stroke="#7d9087" stroke-width="1.4" /><line x1="522.2" y1="355.2" x2="542" y2="358.3" stroke="#7d9087" stroke-width="1.4" /><line x1="520.1" y1="366.8" x2="539.6" y2="370.9" stroke="#7d9087" stroke-width="1.4" /><line x1="517.3" y1="378.2" x2="536.7" y2="383.4" stroke="#7d9087" stroke-width="1.4" /><line x1="514" y1="389.5" x2="533" y2="395.7" stroke="#7d9087" stroke-width="1.4" /><line x1="510.1" y1="400.6" x2="528.7" y2="407.8" stroke="#7d9087" stroke-width="1.4" /><line x1="505.5" y1="411.5" x2="523.8" y2="419.7" stroke="#7d9087" stroke-width="1.4" /><line x1="500.5" y1="422.1" x2="518.3" y2="431.2" stroke="#7d9087" stroke-width="1.4" /><line x1="494.9" y1="432.5" x2="512.2" y2="442.5" stroke="#7d9087" stroke-width="1.4" /><line x1="488.7" y1="442.5" x2="505.5" y2="453.4" stroke="#7d9087" stroke-width="1.4" /><line x1="482" y1="452.3" x2="498.2" y2="464" stroke="#7d9087" stroke-width="1.4" /><line x1="474.9" y1="461.6" x2="490.4" y2="474.2" stroke="#7d9087" stroke-width="1.4" /><line x1="467.2" y1="470.6" x2="482.1" y2="483.9" stroke="#7d9087" stroke-width="1.4" /><line x1="459.1" y1="479.1" x2="473.2" y2="493.2" stroke="#7d9087" stroke-width="1.4" /><line x1="450.6" y1="487.2" x2="463.9" y2="502.1" stroke="#7d9087" stroke-width="1.4" /><line x1="441.6" y1="494.9" x2="454.2" y2="510.4" stroke="#7d9087" stroke-width="1.4" /><line x1="432.3" y1="502" x2="444" y2="518.2" stroke="#7d9087" stroke-width="1.4" /><line x1="422.5" y1="508.7" x2="433.4" y2="525.5" stroke="#7d9087" stroke-width="1.4" /><line x1="412.5" y1="514.9" x2="422.5" y2="532.2" stroke="#7d9087" stroke-width="1.4" /><line x1="402.1" y1="520.5" x2="411.2" y2="538.3" stroke="#7d9087" stroke-width="1.4" /><line x1="391.5" y1="525.5" x2="399.7" y2="543.8" stroke="#7d9087" stroke-width="1.4" /><line x1="380.6" y1="530.1" x2="387.8" y2="548.7" stroke="#7d9087" stroke-width="1.4" /><line x1="369.5" y1="534" x2="375.7" y2="553" stroke="#7d9087" stroke-width="1.4" /><line x1="358.2" y1="537.3" x2="363.4" y2="556.7" stroke="#7d9087" stroke-width="1.4" /><line x1="346.8" y1="540.1" x2="350.9" y2="559.6" stroke="#7d9087" stroke-width="1.4" /><line x1="335.2" y1="542.2" x2="338.3" y2="562" stroke="#7d9087" stroke-width="1.4" /><line x1="323.5" y1="543.8" x2="325.6" y2="563.7" stroke="#7d9087" stroke-width="1.4" /><line x1="311.8" y1="544.7" x2="312.8" y2="564.7" stroke="#7d9087" stroke-width="1.4" /><line x1="300" y1="545" x2="300" y2="565" stroke="#7d9087" stroke-width="1.4" /><line x1="288.2" y1="544.7" x2="287.2" y2="564.7" stroke="#7d9087" stroke-width="1.4" /><line x1="276.5" y1="543.8" x2="274.4" y2="563.7" stroke="#7d9087" stroke-width="1.4" /><line x1="264.8" y1="542.2" x2="261.7" y2="562" stroke="#7d9087" stroke-width="1.4" /><line x1="253.2" y1="540.1" x2="249.1" y2="559.6" stroke="#7d9087" stroke-width="1.4" /><line x1="241.8" y1="537.3" x2="236.6" y2="556.7" stroke="#7d9087" stroke-width="1.4" /><line x1="230.5" y1="534" x2="224.3" y2="553" stroke="#7d9087" stroke-width="1.4" /><line x1="219.4" y1="530.1" x2="212.2" y2="548.7" stroke="#7d9087" stroke-width="1.4" /><line x1="208.5" y1="525.5" x2="200.3" y2="543.8" stroke="#7d9087" stroke-width="1.4" /><line x1="197.9" y1="520.5" x2="188.8" y2="538.3" stroke="#7d9087" stroke-width="1.4" /><line x1="187.5" y1="514.9" x2="177.5" y2="532.2" stroke="#7d9087" stroke-width="1.4" /><line x1="177.5" y1="508.7" x2="166.6" y2="525.5" stroke="#7d9087" stroke-width="1.4" /><line x1="167.7" y1="502" x2="156" y2="518.2" stroke="#7d9087" stroke-width="1.4" /><line x1="158.4" y1="494.9" x2="145.8" y2="510.4" stroke="#7d9087" stroke-width="1.4" /><line x1="149.4" y1="487.2" x2="136.1" y2="502.1" stroke="#7d9087" stroke-width="1.4" /><line x1="140.9" y1="479.1" x2="126.8" y2="493.2" stroke="#7d9087" stroke-width="1.4" /><line x1="132.8" y1="470.6" x2="117.9" y2="483.9" stroke="#7d9087" stroke-width="1.4" /><line x1="125.1" y1="461.6" x2="109.6" y2="474.2" stroke="#7d9087" stroke-width="1.4" /><line x1="118" y1="452.3" x2="101.8" y2="464" stroke="#7d9087" stroke-width="1.4" /><line x1="111.3" y1="442.5" x2="94.5" y2="453.4" stroke="#7d9087" stroke-width="1.4" /><line x1="105.1" y1="432.5" x2="87.8" y2="442.5" stroke="#7d9087" stroke-width="1.4" /><line x1="99.5" y1="422.1" x2="81.7" y2="431.2" stroke="#7d9087" stroke-width="1.4" /><line x1="94.5" y1="411.5" x2="76.2" y2="419.7" stroke="#7d9087" stroke-width="1.4" /><line x1="89.9" y1="400.6" x2="71.3" y2="407.8" stroke="#7d9087" stroke-width="1.4" /><line x1="86" y1="389.5" x2="67" y2="395.7" stroke="#7d9087" stroke-width="1.4" /><line x1="82.7" y1="378.2" x2="63.3" y2="383.4" stroke="#7d9087" stroke-width="1.4" /><line x1="79.9" y1="366.8" x2="60.4" y2="370.9" stroke="#7d9087" stroke-width="1.4" /><line x1="77.8" y1="355.2" x2="58" y2="358.3" stroke="#7d9087" stroke-width="1.4" /><line x1="76.2" y1="343.5" x2="56.3" y2="345.6" stroke="#7d9087" stroke-width="1.4" /><line x1="75.3" y1="331.8" x2="55.3" y2="332.8" stroke="#7d9087" stroke-width="1.4" /><line x1="75" y1="320" x2="55" y2="320" stroke="#7d9087" stroke-width="1.4" /><line x1="75.3" y1="308.2" x2="55.3" y2="307.2" stroke="#7d9087" stroke-width="1.4" /><line x1="76.2" y1="296.5" x2="56.3" y2="294.4" stroke="#7d9087" stroke-width="1.4" /><line x1="77.8" y1="284.8" x2="58" y2="281.7" stroke="#7d9087" stroke-width="1.4" /><line x1="79.9" y1="273.2" x2="60.4" y2="269.1" stroke="#7d9087" stroke-width="1.4" /><line x1="82.7" y1="261.8" x2="63.3" y2="256.6" stroke="#7d9087" stroke-width="1.4" /><line x1="86" y1="250.5" x2="67" y2="244.3" stroke="#7d9087" stroke-width="1.4" /><line x1="89.9" y1="239.4" x2="71.3" y2="232.2" stroke="#7d9087" stroke-width="1.4" /><line x1="94.5" y1="228.5" x2="76.2" y2="220.3" stroke="#7d9087" stroke-width="1.4" /><line x1="99.5" y1="217.9" x2="81.7" y2="208.8" stroke="#7d9087" stroke-width="1.4" /><line x1="105.1" y1="207.5" x2="87.8" y2="197.5" stroke="#7d9087" stroke-width="1.4" /><line x1="111.3" y1="197.5" x2="94.5" y2="186.6" stroke="#7d9087" stroke-width="1.4" /><line x1="118" y1="187.7" x2="101.8" y2="176" stroke="#7d9087" stroke-width="1.4" /><line x1="125.1" y1="178.4" x2="109.6" y2="165.8" stroke="#7d9087" stroke-width="1.4" /><line x1="132.8" y1="169.4" x2="117.9" y2="156.1" stroke="#7d9087" stroke-width="1.4" /><line x1="140.9" y1="160.9" x2="126.8" y2="146.8" stroke="#7d9087" stroke-width="1.4" /><line x1="149.4" y1="152.8" x2="136.1" y2="137.9" stroke="#7d9087" stroke-width="1.4" /><line x1="158.4" y1="145.1" x2="145.8" y2="129.6" stroke="#7d9087" stroke-width="1.4" /><line x1="167.7" y1="138" x2="156" y2="121.8" stroke="#7d9087" stroke-width="1.4" /><line x1="177.5" y1="131.3" x2="166.6" y2="114.5" stroke="#7d9087" stroke-width="1.4" /><line x1="187.5" y1="125.1" x2="177.5" y2="107.8" stroke="#7d9087" stroke-width="1.4" /><line x1="197.9" y1="119.5" x2="188.8" y2="101.7" stroke="#7d9087" stroke-width="1.4" /><line x1="208.5" y1="114.5" x2="200.3" y2="96.2" stroke="#7d9087" stroke-width="1.4" /><line x1="219.4" y1="109.9" x2="212.2" y2="91.3" stroke="#7d9087" stroke-width="1.4" /><line x1="230.5" y1="106" x2="224.3" y2="87" stroke="#7d9087" stroke-width="1.4" /><line x1="241.8" y1="102.7" x2="236.6" y2="83.3" stroke="#7d9087" stroke-width="1.4" /><line x1="253.2" y1="99.9" x2="249.1" y2="80.4" stroke="#7d9087" stroke-width="1.4" /><line x1="264.8" y1="97.8" x2="261.7" y2="78" stroke="#7d9087" stroke-width="1.4" /><line x1="276.5" y1="96.2" x2="274.4" y2="76.3" stroke="#7d9087" stroke-width="1.4" /><line x1="288.2" y1="95.3" x2="287.2" y2="75.3" stroke="#7d9087" stroke-width="1.4" /><line x1="300" y1="95" x2="300" y2="75" stroke="#7d9087" stroke-width="1.4" /><line x1="311.8" y1="95.3" x2="312.8" y2="75.3" stroke="#7d9087" stroke-width="1.4" /><line x1="323.5" y1="96.2" x2="325.6" y2="76.3" stroke="#7d9087" stroke-width="1.4" /><line x1="335.2" y1="97.8" x2="338.3" y2="78" stroke="#7d9087" stroke-width="1.4" /><line x1="346.8" y1="99.9" x2="350.9" y2="80.4" stroke="#7d9087" stroke-width="1.4" /><line x1="358.2" y1="102.7" x2="363.4" y2="83.3" stroke="#7d9087" stroke-width="1.4" /><line x1="369.5" y1="106" x2="375.7" y2="87" stroke="#7d9087" stroke-width="1.4" /><line x1="380.6" y1="109.9" x2="387.8" y2="91.3" stroke="#7d9087" stroke-width="1.4" /><line x1="391.5" y1="114.5" x2="399.7" y2="96.2" stroke="#7d9087" stroke-width="1.4" /><line x1="402.1" y1="119.5" x2="411.2" y2="101.7" stroke="#7d9087" stroke-width="1.4" /><line x1="412.5" y1="125.1" x2="422.5" y2="107.8" stroke="#7d9087" stroke-width="1.4" /><line x1="422.5" y1="131.3" x2="433.4" y2="114.5" stroke="#7d9087" stroke-width="1.4" /><line x1="432.3" y1="138" x2="444" y2="121.8" stroke="#7d9087" stroke-width="1.4" /><line x1="441.6" y1="145.1" x2="454.2" y2="129.6" stroke="#7d9087" stroke-width="1.4" /><line x1="450.6" y1="152.8" x2="463.9" y2="137.9" stroke="#7d9087" stroke-width="1.4" /><line x1="459.1" y1="160.9" x2="473.2" y2="146.8" stroke="#7d9087" stroke-width="1.4" /><line x1="467.2" y1="169.4" x2="482.1" y2="156.1" stroke="#7d9087" stroke-width="1.4" /><line x1="474.9" y1="178.4" x2="490.4" y2="165.8" stroke="#7d9087" stroke-width="1.4" /><line x1="482" y1="187.7" x2="498.2" y2="176" stroke="#7d9087" stroke-width="1.4" /><line x1="488.7" y1="197.5" x2="505.5" y2="186.6" stroke="#7d9087" stroke-width="1.4" /><line x1="494.9" y1="207.5" x2="512.2" y2="197.5" stroke="#7d9087" stroke-width="1.4" /><line x1="500.5" y1="217.9" x2="518.3" y2="208.8" stroke="#7d9087" stroke-width="1.4" /><line x1="505.5" y1="228.5" x2="523.8" y2="220.3" stroke="#7d9087" stroke-width="1.4" /><line x1="510.1" y1="239.4" x2="528.7" y2="232.2" stroke="#7d9087" stroke-width="1.4" /><line x1="514" y1="250.5" x2="533" y2="244.3" stroke="#7d9087" stroke-width="1.4" /><line x1="517.3" y1="261.8" x2="536.7" y2="256.6" stroke="#7d9087" stroke-width="1.4" /><line x1="520.1" y1="273.2" x2="539.6" y2="269.1" stroke="#7d9087" stroke-width="1.4" /><line x1="522.2" y1="284.8" x2="542" y2="281.7" stroke="#7d9087" stroke-width="1.4" /><line x1="523.8" y1="296.5" x2="543.7" y2="294.4" stroke="#7d9087" stroke-width="1.4" /><line x1="524.7" y1="308.2" x2="544.7" y2="307.2" stroke="#7d9087" stroke-width="1.4" /><circle cx="300" cy="320" r="195" fill="none" stroke="#25382f" stroke-width="2" /><line x1="372" y1="320" x2="471.1" y2="413.5" stroke="#25382f" stroke-width="1.5" /><line x1="367.7" y1="344.6" x2="428.8" y2="466.4" stroke="#25382f" stroke-width="1.5" /><line x1="355.2" y1="366.3" x2="371" y2="501.6" stroke="#25382f" stroke-width="1.5" /><line x1="336" y1="382.4" x2="304.6" y2="514.9" stroke="#25382f" stroke-width="1.5" /><line x1="312.5" y1="390.9" x2="237.6" y2="504.8" stroke="#25382f" stroke-width="1.5" /><line x1="287.5" y1="390.9" x2="178.2" y2="472.3" stroke="#25382f" stroke-width="1.5" /><line x1="264" y1="382.4" x2="133.5" y2="421.5" stroke="#25382f" stroke-width="1.5" /><line x1="244.8" y1="366.3" x2="108.8" y2="358.4" stroke="#25382f" stroke-width="1.5" /><line x1="232.3" y1="344.6" x2="107.2" y2="290.7" stroke="#25382f" stroke-width="1.5" /><line x1="228" y1="320" x2="128.9" y2="226.5" stroke="#25382f" stroke-width="1.5" /><line x1="232.3" y1="295.4" x2="171.2" y2="173.6" stroke="#25382f" stroke-width="1.5" /><line x1="244.8" y1="273.7" x2="229" y2="138.4" stroke="#25382f" stroke-width="1.5" /><line x1="264" y1="257.6" x2="295.4" y2="125.1" stroke="#25382f" stroke-width="1.5" /><line x1="287.5" y1="249.1" x2="362.4" y2="135.2" stroke="#25382f" stroke-width="1.5" /><line x1="312.5" y1="249.1" x2="421.8" y2="167.7" stroke="#25382f" stroke-width="1.5" /><line x1="336" y1="257.6" x2="466.5" y2="218.5" stroke="#25382f" stroke-width="1.5" /><line x1="355.2" y1="273.7" x2="491.2" y2="281.6" stroke="#25382f" stroke-width="1.5" /><line x1="367.7" y1="295.4" x2="492.8" y2="349.3" stroke="#25382f" stroke-width="1.5" /><circle cx="300" cy="320" r="80" fill="#0d1611" stroke="#ff7a1a" stroke-width="4" /><circle cx="352.8" cy="320" r="6.4" fill="none" stroke="#e9f0ec" stroke-width="2" /><circle cx="337.3" cy="357.3" r="6.4" fill="none" stroke="#e9f0ec" stroke-width="2" /><circle cx="300" cy="372.8" r="6.4" fill="none" stroke="#e9f0ec" stroke-width="2" /><circle cx="262.7" cy="357.3" r="6.4" fill="none" stroke="#e9f0ec" stroke-width="2" /><circle cx="247.2" cy="320" r="6.4" fill="none" stroke="#e9f0ec" stroke-width="2" /><circle cx="262.7" cy="282.7" r="6.4" fill="none" stroke="#e9f0ec" stroke-width="2" /><circle cx="300" cy="267.2" r="6.4" fill="none" stroke="#e9f0ec" stroke-width="2" /><circle cx="337.3" cy="282.7" r="6.4" fill="none" stroke="#e9f0ec" stroke-width="2" /><circle cx="300" cy="320" r="24" fill="none" stroke="#e9f0ec" stroke-width="2" /><line x1="50" y1="36" x2="550" y2="36" stroke="#93a69c" stroke-width="1.5" /><line x1="50" y1="28" x2="50" y2="44" stroke="#93a69c" stroke-width="1.5" /><line x1="550" y1="28" x2="550" y2="44" stroke="#93a69c" stroke-width="1.5" /><rect x="244" y="21" width="112" height="30" rx="4" fill="#0d1611" stroke="none" stroke-width="0" /><text x="300" y="42" class="c mono" font-size="15" >Ø 50 cm</text><rect x="288" y="320" width="24" height="260" rx="2" fill="#0d1611" stroke="#c9d4ce" stroke-width="2" /><ellipse cx="300" cy="360" rx="4.5" ry="8" fill="none" stroke="#c9d4ce" stroke-width="1"/><ellipse cx="300" cy="390" rx="4.5" ry="8" fill="none" stroke="#c9d4ce" stroke-width="1"/><ellipse cx="300" cy="420" rx="4.5" ry="8" fill="none" stroke="#c9d4ce" stroke-width="1"/><ellipse cx="300" cy="450" rx="4.5" ry="8" fill="none" stroke="#c9d4ce" stroke-width="1"/><ellipse cx="300" cy="480" rx="4.5" ry="8" fill="none" stroke="#c9d4ce" stroke-width="1"/><ellipse cx="300" cy="510" rx="4.5" ry="8" fill="none" stroke="#c9d4ce" stroke-width="1"/><ellipse cx="300" cy="540" rx="4.5" ry="8" fill="none" stroke="#c9d4ce" stroke-width="1"/><ellipse cx="300" cy="570" rx="4.5" ry="8" fill="none" stroke="#c9d4ce" stroke-width="1"/><g transform="rotate(45 300 352)"><rect x="300" y="340" width="262" height="24" rx="2" fill="#0d1611" stroke="#c9d4ce" stroke-width="2" /><ellipse cx="340" cy="352" rx="8" ry="4.5" fill="none" stroke="#c9d4ce" stroke-width="1"/><ellipse cx="380" cy="352" rx="8" ry="4.5" fill="none" stroke="#c9d4ce" stroke-width="1"/><ellipse cx="420" cy="352" rx="8" ry="4.5" fill="none" stroke="#c9d4ce" stroke-width="1"/><ellipse cx="460" cy="352" rx="8" ry="4.5" fill="none" stroke="#c9d4ce" stroke-width="1"/><ellipse cx="500" cy="352" rx="8" ry="4.5" fill="none" stroke="#c9d4ce" stroke-width="1"/><ellipse cx="540" cy="352" rx="8" ry="4.5" fill="none" stroke="#c9d4ce" stroke-width="1"/></g><circle cx="300" cy="320" r="8" fill="#ff7a1a" stroke="none" stroke-width="2" /><circle cx="300" cy="352" r="5" fill="#c9d4ce" stroke="none" stroke-width="2" /><rect x="466" y="534" width="130" height="10" rx="2" fill="#1b2c25" stroke="#93a69c" stroke-width="1.5" /><rect x="498" y="432" width="66" height="102" rx="8" fill="#0d1611" stroke="#e9f0ec" stroke-width="2" /><line x1="512" y1="446" x2="512" y2="520" stroke="#ff7a1a" stroke-width="3" /><line x1="524" y1="446" x2="524" y2="520" stroke="#ff7a1a" stroke-width="3" /><line x1="536" y1="446" x2="536" y2="520" stroke="#ff7a1a" stroke-width="3" /><line x1="548" y1="446" x2="548" y2="520" stroke="#ff7a1a" stroke-width="3" /><path d="M300,402 A50,50 0 0 0 335.4,387.4" fill="none" stroke="#ff7a1a" stroke-width="2"/><text x="280" y="418" class="a mono r" font-size="14" >−45°</text><circle cx="419.6" cy="525.3" r="1.7" fill="#ff7a1a" stroke="none" stroke-width="0" opacity="0.8"/><circle cx="362.4" cy="516.4" r="3.7" fill="#ff7a1a" stroke="none" stroke-width="0" opacity="0.5"/><circle cx="344.7" cy="521.1" r="2.3" fill="#ff7a1a" stroke="none" stroke-width="0" opacity="0.6"/><circle cx="429.7" cy="508.3" r="3.1" fill="#ff7a1a" stroke="none" stroke-width="0" opacity="0.6"/><circle cx="336.9" cy="556.9" r="2.7" fill="#ff7a1a" stroke="none" stroke-width="0" opacity="0.7"/><circle cx="423.4" cy="494.7" r="1.8" fill="#ff7a1a" stroke="none" stroke-width="0" opacity="0.9"/><circle cx="366.3" cy="531.3" r="2.6" fill="#ff7a1a" stroke="none" stroke-width="0" opacity="0.8"/><circle cx="327.8" cy="547.2" r="4.1" fill="#ff7a1a" stroke="none" stroke-width="0" opacity="0.5"/><circle cx="350.2" cy="534.1" r="3.5" fill="#ff7a1a" stroke="none" stroke-width="0" opacity="0.4"/><circle cx="395" cy="492.5" r="1.7" fill="#ff7a1a" stroke="none" stroke-width="0" opacity="0.8"/><circle cx="494.5" cy="538.1" r="1.9" fill="#ff7a1a" stroke="none" stroke-width="0" opacity="0.5"/><circle cx="441.5" cy="512.2" r="3.8" fill="#ff7a1a" stroke="none" stroke-width="0" opacity="0.8"/><circle cx="380.2" cy="509.6" r="3.3" fill="#ff7a1a" stroke="none" stroke-width="0" opacity="0.3"/><circle cx="463.8" cy="542.1" r="2.4" fill="#ff7a1a" stroke="none" stroke-width="0" opacity="0.6"/><circle cx="396.6" cy="493.9" r="1.6" fill="#ff7a1a" stroke="none" stroke-width="0" opacity="0.8"/><circle cx="488" cy="538.8" r="2.3" fill="#ff7a1a" stroke="none" stroke-width="0" opacity="0.7"/><circle cx="355.4" cy="507.9" r="2.5" fill="#ff7a1a" stroke="none" stroke-width="0" opacity="0.6"/><circle cx="414.3" cy="487.7" r="2.7" fill="#ff7a1a" stroke="none" stroke-width="0" opacity="0.9"/><circle cx="411.6" cy="517.7" r="3.8" fill="#ff7a1a" stroke="none" stroke-width="0" opacity="0.6"/><circle cx="392" cy="529.7" r="2.5" fill="#ff7a1a" stroke="none" stroke-width="0" opacity="0.7"/><circle cx="328.6" cy="559.4" r="1.9" fill="#ff7a1a" stroke="none" stroke-width="0" opacity="0.6"/><circle cx="419.2" cy="530.4" r="3.4" fill="#ff7a1a" stroke="none" stroke-width="0" opacity="0.9"/><circle cx="310.8" cy="562.4" r="1.6" fill="#ff7a1a" stroke="none" stroke-width="0" opacity="0.9"/><circle cx="323.5" cy="547.4" r="3" fill="#ff7a1a" stroke="none" stroke-width="0" opacity="0.4"/><circle cx="489.2" cy="545.8" r="2.2" fill="#ff7a1a" stroke="none" stroke-width="0" opacity="0.6"/><circle cx="357.4" cy="535.1" r="2" fill="#ff7a1a" stroke="none" stroke-width="0" opacity="0.4"/><circle cx="401" cy="492.8" r="4" fill="#ff7a1a" stroke="none" stroke-width="0" opacity="0.7"/><circle cx="448.9" cy="531.9" r="4" fill="#ff7a1a" stroke="none" stroke-width="0" opacity="0.4"/><circle cx="433.5" cy="522.8" r="2.7" fill="#ff7a1a" stroke="none" stroke-width="0" opacity="0.4"/><circle cx="322.9" cy="556.6" r="4" fill="#ff7a1a" stroke="none" stroke-width="0" opacity="0.5"/><circle cx="354.8" cy="539.1" r="2" fill="#ff7a1a" stroke="none" stroke-width="0" opacity="0.5"/><circle cx="329.5" cy="558.4" r="1.7" fill="#ff7a1a" stroke="none" stroke-width="0" opacity="0.7"/><circle cx="406.5" cy="499.3" r="1.9" fill="#ff7a1a" stroke="none" stroke-width="0" opacity="0.4"/><circle cx="486.5" cy="537.5" r="3.8" fill="#ff7a1a" stroke="none" stroke-width="0" opacity="0.6"/><circle cx="464" cy="531" r="1.5" fill="#ff7a1a" stroke="none" stroke-width="0" opacity="0.6"/><circle cx="379.4" cy="520.3" r="3" fill="#ff7a1a" stroke="none" stroke-width="0" opacity="0.9"/><circle cx="407.1" cy="513.6" r="3.7" fill="#ff7a1a" stroke="none" stroke-width="0" opacity="0.4"/><circle cx="427.2" cy="523.5" r="2.8" fill="#ff7a1a" stroke="none" stroke-width="0" opacity="0.5"/><circle cx="439.4" cy="514.4" r="2.8" fill="#ff7a1a" stroke="none" stroke-width="0" opacity="0.8"/><circle cx="403.5" cy="493.8" r="3.6" fill="#ff7a1a" stroke="none" stroke-width="0" opacity="0.7"/><polyline points="346,288 420,200 620,200" fill="none" stroke="#ff7a1a" stroke-width="1.4"/><text x="630" y="205" class="a bold" font-size="18" >48 V 輪轂馬達</text><polyline points="312,470 450,300 620,300" fill="none" stroke="#7d9087" stroke-width="1.4"/><text x="630" y="305" class="m" font-size="14" >角鋼：車輪鎖固於輪徑一半高度</text><polyline points="420,470 500,384 620,384" fill="none" stroke="#7d9087" stroke-width="1.4"/><text x="630" y="389" class="m" font-size="14" >−45° 延伸角鋼（30 cm）</text><polyline points="564,470 620,466" fill="none" stroke="#ff7a1a" stroke-width="1.4"/><text x="630" y="471" class="a" font-size="15" >捕捉裝置＋集塵盒</text><polyline points="440,575 520,548 620,548" fill="none" stroke="#7d9087" stroke-width="1.4"/><text x="630" y="553" class="m" font-size="14" >#60 砂紙</text><text x="340" y="642" class="c f" font-size="13" >木板底座</text></svg>