<svg xmlns="http://www.w3.org/2000/svg" viewBox="0 0 1000 434" width="1000" height="434" font-family="'Noto Sans TC','PingFang TC','Microsoft JhengHei',sans-serif"><style>text{fill:#e9f0ec;font-size:16px}.m{fill:#93a69c}.f{fill:#7d9087}.a{fill:#ff7a1a}.a2{fill:#ffb070}.e{fill:#7fd6a4}.b{fill:#7fb8ff}.d{fill:#ff5a4e}.k{fill:#111}.mono{font-family:'JetBrains Mono',Consolas,monospace}.c{text-anchor:middle}.r{text-anchor:end}.bold{font-weight:700}</style><defs><pattern id="hA" width="9" height="9" patternUnits="userSpaceOnUse" patternTransform="rotate(45)"><rect width="9" height="9" fill="#ff7a1a" fill-opacity="0.1"/><line x1="0" y1="0" x2="0" y2="9" stroke="#ff7a1a" stroke-width="1.6" stroke-opacity="0.55"/></pattern><pattern id="hG" width="9" height="9" patternUnits="userSpaceOnUse" patternTransform="rotate(45)"><rect width="9" height="9" fill="#93a69c" fill-opacity="0.06"/><line x1="0" y1="0" x2="0" y2="9" stroke="#93a69c" stroke-width="1.6" stroke-opacity="0.45"/></pattern><pattern id="hE" width="9" height="9" patternUnits="userSpaceOnUse" patternTransform="rotate(45)"><rect width="9" height="9" fill="#7fd6a4" fill-opacity="0.08"/><line x1="0" y1="0" x2="0" y2="9" stroke="#7fd6a4" stroke-width="1.6" stroke-opacity="0.5"/></pattern><marker id="mA" viewBox="0 0 10 10" refX="9" refY="5" markerWidth="7" markerHeight="7" orient="auto-start-reverse"><path d="M0,0L10,5L0,10z" fill="#ff7a1a"/></marker><marker id="mM" viewBox="0 0 10 10" refX="9" refY="5" markerWidth="7" markerHeight="7" orient="auto-start-reverse"><path d="M0,0L10,5L0,10z" fill="#93a69c"/></marker><marker id="mE" viewBox="0 0 10 10" refX="9" refY="5" markerWidth="7" markerHeight="7" orient="auto-start-reverse"><path d="M0,0L10,5L0,10z" fill="#7fd6a4"/></marker><marker id="mF" viewBox="0 0 10 10" refX="9" refY="5" markerWidth="7" markerHeight="7" orient="auto-start-reverse"><path d="M0,0L10,5L0,10z" fill="#7d9087"/></marker><marker id="mB" viewBox="0 0 10 10" refX="9" refY="5" markerWidth="7" markerHeight="7" orient="auto-start-reverse"><path d="M0,0L10,5L0,10z" fill="#7fb8ff"/></marker><marker id="mT" viewBox="0 0 10 10" refX="9" refY="5" markerWidth="7" markerHeight="7" orient="auto-start-reverse"><path d="M0,0L10,5L0,10z" fill="#e9f0ec"/></marker></defs><rect width="1000" height="434" fill="#14221c"/><rect x="60" y="180" width="70" height="40" rx="20" fill="#1b2c25" stroke="#93a69c" stroke-width="2" /><text x="95" y="246" class="c f" font-size="13" >輪胎</text><polygon points="130,200 880,70 880,330" fill="rgba(255,122,26,.10)" stroke="#ff7a1a" stroke-width="1.5"/><ellipse cx="407.4" cy="200" rx="62" ry="52" fill="url(#hA)" stroke="#ff7a1a" stroke-width="2"/><line x1="407.4" y1="148" x2="407.4" y2="252" stroke="#e9f0ec" stroke-width="1.5" marker-start="url(#mT)" marker-end="url(#mT)"/><text x="479.4" y="206" class="a mono bold" font-size="16" >21 cm</text><line x1="130" y1="44" x2="880" y2="44" stroke="#93a69c" stroke-width="1.5" /><line x1="130" y1="36" x2="130" y2="52" stroke="#93a69c" stroke-width="1.5" /><text x="130" y="28" class="c mono m" font-size="14" >0</text><line x1="407.4" y1="36" x2="407.4" y2="52" stroke="#93a69c" stroke-width="1.5" /><text x="407.4" y="28" class="c mono a" font-size="14" >27 cm 沉積最多</text><line x1="880" y1="36" x2="880" y2="52" stroke="#93a69c" stroke-width="1.5" /><text x="880" y="28" class="c mono m" font-size="14" >73 cm</text><line x1="130" y1="370" x2="880" y2="370" stroke="#93a69c" stroke-width="1.5" /><line x1="130" y1="370" x2="130" y2="378" stroke="#93a69c" stroke-width="1.5" /><text x="130" y="396" class="c f mono" font-size="12" >0</text><line x1="232.7" y1="370" x2="232.7" y2="378" stroke="#93a69c" stroke-width="1.5" /><text x="232.7" y="396" class="c f mono" font-size="12" >10</text><line x1="335.5" y1="370" x2="335.5" y2="378" stroke="#93a69c" stroke-width="1.5" /><text x="335.5" y="396" class="c f mono" font-size="12" >20</text><line x1="438.2" y1="370" x2="438.2" y2="378" stroke="#93a69c" stroke-width="1.5" /><text x="438.2" y="396" class="c f mono" font-size="12" >30</text><line x1="541" y1="370" x2="541" y2="378" stroke="#93a69c" stroke-width="1.5" /><text x="541" y="396" class="c f mono" font-size="12" >40</text><line x1="643.7" y1="370" x2="643.7" y2="378" stroke="#93a69c" stroke-width="1.5" /><text x="643.7" y="396" class="c f mono" font-size="12" >50</text><line x1="746.4" y1="370" x2="746.4" y2="378" stroke="#93a69c" stroke-width="1.5" /><text x="746.4" y="396" class="c f mono" font-size="12" >60</text><line x1="849.2" y1="370" x2="849.2" y2="378" stroke="#93a69c" stroke-width="1.5" /><text x="849.2" y="396" class="c f mono" font-size="12" >70</text><text x="880" y="422" class="r m" font-size="13" >水平距離 (cm)</text><text x="890" y="206" class="m" font-size="13" text-anchor="start" transform="rotate(-90 905 200)">擴散區域 0–73 cm</text></svg>